<svg
  xmlns="http://www.w3.org/2000/svg"
  viewBox="0 0 24 24"
  style="width: var(--icon-size, 1rem); height: var(--icon-size, 1rem); stroke-width: var(--stroke-width, 2px);"
  fill="none"
  stroke="currentColor"
  stroke-linecap="round"
  stroke-linejoin="round"
>
  <path d="M4 10a4 4 0 0 1 4-4h8a4 4 0 0 1 4 4v10a2 2 0 0 1-2 2H6a2 2 0 0 1-2-2z" />
  <path d="M8 10h8" />
  <path d="M8 18h8" />
  <path d="M8 22v-6a2 2 0 0 1 2-2h4a2 2 0 0 1 2 2v6" />
  <path d="M9 6V4a2 2 0 0 1 2-2h2a2 2 0 0 1 2 2v2" />
</svg>
